<?xml version="1.0" encoding="utf-8"?>
<!-- Generator: Adobe Illustrator 16.0.0, SVG Export Plug-In . SVG Version: 6.00 Build 0)  -->
<!DOCTYPE svg PUBLIC "-//W3C//DTD SVG 1.1//EN" "http://www.w3.org/Graphics/SVG/1.1/DTD/svg11.dtd">
<svg version="1.1" xmlns="http://www.w3.org/2000/svg" xmlns:xlink="http://www.w3.org/1999/xlink" x="0px" y="0px" width="140px"
	 height="163px" viewBox="0 0 140 163" enable-background="new 0 0 140 163" xml:space="preserve">
<g id="Layer_2" display="none">
	<rect x="-582.888" y="-232" display="inline" fill="#DDF1F4" width="352.5" height="203"/>
</g>
<g id="Layer_1">
	<g>
		<g>
			<path fill="#ECF0F1" d="M67,14.738V0.763c5.003,2.514,10.04,3.012,14.92,3.494c4.4,0.435,8.933,0.882,13.397,2.841
				c-4.549,0.287-9.109,2.09-13.532,3.838c-4.736,1.871-9.634,3.807-14.4,3.807C67.257,14.742,67.128,14.741,67,14.738z"/>
			<path fill="#1ABC9C" d="M67.5,1.561c4.842,2.252,9.679,2.729,14.37,3.193c3.909,0.387,7.655,0.757,11.389,2.065
				c-3.94,0.602-7.85,2.146-11.657,3.651c-4.654,1.839-9.466,3.74-14.102,3.771V1.561 M66.5-0.062c0,5.095,0,10.188,0,15.283
				c0.295,0.015,0.59,0.021,0.885,0.021c9.723,0,19.444-7.684,29.167-7.684c0.294,0,0.59,0.007,0.885,0.021
				C87.125,1.976,76.812,5.542,66.5-0.062L66.5-0.062z"/>
		</g>
		<line fill="none" stroke="#BDC3C7" stroke-miterlimit="10" x1="64.5" y1="19.643" x2="64.5" y2="-0.062"/>
		<g>
			<path fill="#ECF0F1" d="M137.236,120c1.449-3.203,2.264-6.756,2.264-10.5c0-14.084-11.417-25.5-25.5-25.5s-25.5,11.416-25.5,25.5
				c0,0.068,0.004,0.135,0.005,0.203C85.603,105.65,80.865,103,75.5,103c-8.836,0-16,7.163-16,16c0,0.338,0.03,0.668,0.05,1H137.236
				z"/>
		</g>
		<g>
			<path fill="#ECF0F1" d="M39.368,79c0.725-1.602,1.132-3.378,1.132-5.25C40.5,66.708,34.792,61,27.75,61S15,66.708,15,73.75
				c0,0.034,0.002,0.067,0.002,0.102C13.551,71.825,11.183,70.5,8.5,70.5c-4.418,0-8,3.582-8,8c0,0.169,0.015,0.334,0.025,0.5
				H39.368z"/>
		</g>
		<g>
			<polygon fill="#3498DB" points="72.078,21.238 71.68,17.25 68.888,17.25 68.888,19.643 66.096,19.643 66.096,17.25 62.904,17.25 
				62.904,19.643 60.113,19.643 60.113,17.25 57.321,17.25 56.922,21.238 58.518,22.436 57.72,34.002 71.28,34.002 70.482,22.436 
							"/>
		</g>
		<g>
			<polygon fill="#1ABC9C" points="73.646,35.927 73.164,31.113 69.795,31.113 69.795,34.002 66.426,34.002 66.426,31.113 
				62.574,31.113 62.574,34.002 59.205,34.002 59.205,31.113 55.835,31.113 55.354,35.927 57.28,37.371 56.317,51.33 72.684,51.33 
				71.721,37.371 			"/>
		</g>
		<g>
			<polygon fill="#BDC3C7" points="75.475,53.641 74.897,47.864 70.854,47.864 70.854,51.33 66.811,51.33 66.811,47.864 
				62.189,47.864 62.189,51.33 58.146,51.33 58.146,47.864 54.103,47.864 53.525,53.641 55.835,55.373 54.68,72.125 74.32,72.125 
				73.164,55.373 			"/>
		</g>
		<path fill="#BDC3C7" d="M61.612,59.417c0-0.957-0.776-1.733-1.733-1.733s-1.733,0.776-1.733,1.733v2.888h3.466V59.417z"/>
		<g>
			<defs>
				<path id="SVGID_1_" d="M61.612,59.417c0-0.957-0.776-1.733-1.733-1.733s-1.733,0.776-1.733,1.733v2.888h3.466V59.417z"/>
			</defs>
			<clipPath id="SVGID_2_">
				<use xlink:href="#SVGID_1_"  overflow="visible"/>
			</clipPath>
			<path clip-path="url(#SVGID_2_)" fill="#BDC3C7" d="M62.612,59.417c0-0.957-0.776-1.733-1.733-1.733s-1.733,0.776-1.733,1.733
				v2.888h3.466V59.417z"/>
		</g>
		<path fill="#BDC3C7" d="M70.854,59.417c0-0.957-0.776-1.733-1.733-1.733s-1.733,0.776-1.733,1.733v2.888h3.466V59.417z"/>
		<g>
			<defs>
				<path id="SVGID_3_" d="M70.854,59.417c0-0.957-0.776-1.733-1.733-1.733s-1.733,0.776-1.733,1.733v2.888h3.466V59.417z"/>
			</defs>
			<clipPath id="SVGID_4_">
				<use xlink:href="#SVGID_3_"  overflow="visible"/>
			</clipPath>
			<path clip-path="url(#SVGID_4_)" fill="#BDC3C7" d="M69.854,59.417c0-0.957-0.776-1.733-1.733-1.733s-1.733,0.776-1.733,1.733
				v2.888h3.466V59.417z"/>
		</g>
		<path fill="#1ABC9C" d="M59.879,40.355c0-0.639,0.518-1.155,1.155-1.155c0.638,0,1.155,0.517,1.155,1.155v2.311h-2.311V40.355z"/>
		<g>
			<defs>
				<path id="SVGID_5_" d="M59.879,40.355c0-0.639,0.518-1.155,1.155-1.155c0.638,0,1.155,0.517,1.155,1.155v2.311h-2.311V40.355z"
					/>
			</defs>
			<clipPath id="SVGID_6_">
				<use xlink:href="#SVGID_5_"  overflow="visible"/>
			</clipPath>
			<path clip-path="url(#SVGID_6_)" fill="#1ABC9C" d="M60.879,40.355c0-0.639,0.518-1.155,1.155-1.155
				c0.638,0,1.155,0.517,1.155,1.155v2.311h-2.311V40.355z"/>
		</g>
		<path fill="#1ABC9C" d="M66.811,40.355c0-0.639,0.517-1.155,1.155-1.155c0.638,0,1.155,0.517,1.155,1.155v2.311h-2.311V40.355z"/>
		<g>
			<defs>
				<path id="SVGID_7_" d="M66.811,40.355c0-0.639,0.517-1.155,1.155-1.155c0.638,0,1.155,0.517,1.155,1.155v2.311h-2.311V40.355z"
					/>
			</defs>
			<clipPath id="SVGID_8_">
				<use xlink:href="#SVGID_7_"  overflow="visible"/>
			</clipPath>
			<path clip-path="url(#SVGID_8_)" fill="#1ABC9C" d="M65.811,40.355c0-0.639,0.517-1.155,1.155-1.155
				c0.638,0,1.155,0.517,1.155,1.155v2.311h-2.311V40.355z"/>
		</g>
		<path fill="#3498DB" d="M61.034,24.471c0-0.479,0.388-0.867,0.867-0.867c0.479,0,0.866,0.389,0.866,0.867v2.021h-1.733V24.471z"/>
		<g>
			<defs>
				<path id="SVGID_9_" d="M61.034,24.471c0-0.479,0.388-0.867,0.867-0.867c0.479,0,0.866,0.389,0.866,0.867v2.021h-1.733V24.471z"
					/>
			</defs>
			<clipPath id="SVGID_10_">
				<use xlink:href="#SVGID_9_"  overflow="visible"/>
			</clipPath>
			<path clip-path="url(#SVGID_10_)" fill="#3498DB" d="M61.612,24.471c0-0.479,0.388-0.867,0.867-0.867
				c0.479,0,0.866,0.389,0.866,0.867v2.021h-1.733V24.471z"/>
		</g>
		<path fill="#3498DB" d="M66.233,24.471c0-0.479,0.388-0.867,0.867-0.867c0.479,0,0.866,0.389,0.866,0.867v2.021h-1.733V24.471z"/>
		<g>
			<defs>
				<path id="SVGID_11_" d="M66.233,24.471c0-0.479,0.388-0.867,0.867-0.867c0.479,0,0.866,0.389,0.866,0.867v2.021h-1.733V24.471z"
					/>
			</defs>
			<clipPath id="SVGID_12_">
				<use xlink:href="#SVGID_11_"  overflow="visible"/>
			</clipPath>
			<path clip-path="url(#SVGID_12_)" fill="#3498DB" d="M65.702,24.471c0-0.479,0.388-0.867,0.867-0.867
				c0.479,0,0.866,0.389,0.866,0.867v2.021h-1.733V24.471z"/>
		</g>
		<rect x="58.146" y="47.864" fill="#1ABC9C" width="1.448" height="3.466"/>
		<rect x="66.811" y="47.864" fill="#1ABC9C" width="1.33" height="3.466"/>
		<rect x="59.205" y="31.113" fill="#3498DB" width="1.123" height="2.889"/>
		<rect x="66.426" y="31.113" fill="#3498DB" width="1.152" height="2.889"/>
		<polygon fill="#BDC3C7" points="56.556,47.864 56.341,51.33 58.146,51.33 58.146,47.864 		"/>
		<polygon fill="#1ABC9C" points="57.919,31.113 57.72,34.002 59.205,34.002 59.205,31.113 		"/>
		<polygon fill="#3498DB" points="60.113,19.643 58.832,19.643 59.013,17.25 60.113,17.25 		"/>
		<polyline opacity="0.2" fill="#FFFFFF" points="64.5,17.25 62.904,17.25 62.904,19.643 60.113,19.643 60.113,17.25 57.321,17.25 
			56.922,21.238 58.518,22.436 57.919,31.113 55.835,31.113 55.354,35.927 57.28,37.371 56.556,47.864 54.103,47.864 53.525,53.641 
			55.835,55.373 54.68,72.125 64.5,72.125 		"/>
		<polygon opacity="0.2" fill="#FFFFFF" points="72.452,47.864 72.667,51.33 70.862,51.33 70.862,47.864 		"/>
		<polygon opacity="0.2" fill="#FFFFFF" points="71.089,31.113 71.288,34.002 69.803,34.002 69.803,31.113 		"/>
		<polygon opacity="0.2" fill="#FFFFFF" points="68.895,19.643 70.176,19.643 69.996,17.25 68.895,17.25 		"/>
		<g>
			<polygon fill="#3498DB" points="77.619,74.904 76.929,68 72.096,68 72.096,72.143 67.262,72.143 67.262,68 61.738,68 
				61.738,72.143 56.905,72.143 56.905,68 52.071,68 51.381,74.904 54.143,76.977 52.762,97 76.238,97 74.857,76.977 			"/>
		</g>
		<rect x="55.333" y="92" fill="#3498DB" width="2" height="5"/>
		<rect x="67.828" y="92" fill="#3498DB" width="2" height="5"/>
		<g>
			<polygon fill="#1ABC9C" points="80.334,100.334 79.5,92 73.667,92 73.667,97 67.833,97 67.833,92 61.167,92 61.167,97 55.333,97 
				55.333,92 49.5,92 48.667,100.334 52,102.833 50.333,127 78.666,127 77,102.833 			"/>
		</g>
		<rect x="53.5" y="121" fill="#1ABC9C" width="2" height="6"/>
		<rect x="68.5" y="121" fill="#1ABC9C" width="2" height="6"/>
		<g>
			<polygon fill="#BDC3C7" points="83.5,131 82.5,121 75.5,121 75.5,127 68.5,127 68.5,121 60.5,121 60.5,127 53.5,127 53.5,121 
				46.5,121 45.5,131 49.5,134 47.5,163 81.5,163 79.5,134 			"/>
		</g>
		<path fill="#BDC3C7" d="M59.5,141c0-1.656-1.343-3-3-3s-3,1.344-3,3v5h6V141z"/>
		<g>
			<defs>
				<path id="SVGID_13_" d="M59.5,141c0-1.656-1.343-3-3-3s-3,1.344-3,3v5h6V141z"/>
			</defs>
			<clipPath id="SVGID_14_">
				<use xlink:href="#SVGID_13_"  overflow="visible"/>
			</clipPath>
			<path clip-path="url(#SVGID_14_)" fill="#BDC3C7" d="M61.5,141c0-1.656-1.343-3-3-3s-3,1.344-3,3v5h6V141z"/>
		</g>
		<path fill="#BDC3C7" d="M75.5,141c0-1.656-1.344-3-3-3c-1.657,0-3,1.344-3,3v5h6V141z"/>
		<g>
			<defs>
				<path id="SVGID_15_" d="M75.5,141c0-1.656-1.344-3-3-3c-1.657,0-3,1.344-3,3v5h6V141z"/>
			</defs>
			<clipPath id="SVGID_16_">
				<use xlink:href="#SVGID_15_"  overflow="visible"/>
			</clipPath>
			<path clip-path="url(#SVGID_16_)" fill="#BDC3C7" d="M73.5,141c0-1.656-1.344-3-3-3c-1.657,0-3,1.344-3,3v5h6V141z"/>
		</g>
		<polygon fill="#BDC3C7" points="50.747,121 50.375,127 53.5,127 53.5,121 		"/>
		<polygon fill="#1ABC9C" points="53.107,92 52.762,97 55.333,97 55.333,92 		"/>
		<polygon fill="#3498DB" points="56.905,72.143 54.688,72.143 55,68 56.905,68 		"/>
		<polygon opacity="0.2" fill="#FFFFFF" points="78.267,121 78.639,127 75.514,127 75.514,121 		"/>
		<polygon opacity="0.2" fill="#FFFFFF" points="75.906,92 76.252,97 73.68,97 73.68,92 		"/>
		<polygon opacity="0.2" fill="#FFFFFF" points="72.109,72.143 74.326,72.143 74.014,68 72.109,68 		"/>
		<path fill="#1ABC9C" d="M56.5,108c0-1.104,0.896-2,2-2s2,0.896,2,2v4h-4V108z"/>
		<g>
			<defs>
				<path id="SVGID_17_" d="M56.5,108c0-1.104,0.896-2,2-2s2,0.896,2,2v4h-4V108z"/>
			</defs>
			<clipPath id="SVGID_18_">
				<use xlink:href="#SVGID_17_"  overflow="visible"/>
			</clipPath>
			<path clip-path="url(#SVGID_18_)" fill="#1ABC9C" d="M57.5,108c0-1.104,0.896-2,2-2s2,0.896,2,2v4h-4V108z"/>
		</g>
		<path fill="#1ABC9C" d="M68.5,108c0-1.104,0.896-2,2-2s2,0.896,2,2v4h-4V108z"/>
		<g>
			<defs>
				<path id="SVGID_19_" d="M68.5,108c0-1.104,0.896-2,2-2s2,0.896,2,2v4h-4V108z"/>
			</defs>
			<clipPath id="SVGID_20_">
				<use xlink:href="#SVGID_19_"  overflow="visible"/>
			</clipPath>
			<path clip-path="url(#SVGID_20_)" fill="#1ABC9C" d="M67.5,108c0-1.104,0.896-2,2-2s2,0.896,2,2v4h-4V108z"/>
		</g>
		<path fill="#3498DB" d="M58.5,80.5c0-0.828,0.671-1.5,1.5-1.5s1.5,0.672,1.5,1.5V84h-3V80.5z"/>
		<g>
			<defs>
				<path id="SVGID_21_" d="M58.5,80.5c0-0.828,0.671-1.5,1.5-1.5s1.5,0.672,1.5,1.5V84h-3V80.5z"/>
			</defs>
			<clipPath id="SVGID_22_">
				<use xlink:href="#SVGID_21_"  overflow="visible"/>
			</clipPath>
			<path clip-path="url(#SVGID_22_)" fill="#3498DB" d="M59.5,80.5c0-0.828,0.671-1.5,1.5-1.5s1.5,0.672,1.5,1.5V84h-3V80.5z"/>
		</g>
		<path fill="#3498DB" d="M67.5,80.5c0-0.828,0.671-1.5,1.5-1.5s1.5,0.672,1.5,1.5V84h-3V80.5z"/>
		<g>
			<defs>
				<path id="SVGID_23_" d="M67.5,80.5c0-0.828,0.671-1.5,1.5-1.5s1.5,0.672,1.5,1.5V84h-3V80.5z"/>
			</defs>
			<clipPath id="SVGID_24_">
				<use xlink:href="#SVGID_23_"  overflow="visible"/>
			</clipPath>
			<path clip-path="url(#SVGID_24_)" fill="#3498DB" d="M66.5,80.5c0-0.828,0.671-1.5,1.5-1.5s1.5,0.672,1.5,1.5V84h-3V80.5z"/>
		</g>
		<g>
			<path fill="#ECF0F1" d="M110.689,45.117c0.519-1.148,0.811-2.422,0.811-3.764c0-5.047-4.091-9.137-9.138-9.137
				c-5.046,0-9.138,4.09-9.138,9.137c0,0.025,0.002,0.049,0.002,0.073c-1.039-1.452-2.737-2.401-4.66-2.401
				c-3.166,0-5.732,2.566-5.732,5.732c0,0.121,0.01,0.24,0.018,0.359H110.689z"/>
		</g>
		<rect x="56.905" y="68" fill="#BDC3C7" width="2" height="4.143"/>
		<rect x="67.28" y="68" fill="#BDC3C7" width="2" height="4.143"/>
		<polyline opacity="0.2" fill="#FFFFFF" points="64.5,68 61.738,68 61.738,72.143 56.905,72.143 56.905,68 52.071,68 
			51.381,74.904 54.143,76.977 53.107,92 49.5,92 48.667,100.334 52,102.833 50.747,121 46.5,121 45.5,131 49.5,134 47.5,163 
			64.5,163 		"/>
		<g>
			<path fill="#3498DB" d="M75.619,5.472c-0.006-0.062-0.06-0.11-0.123-0.11h-0.628c-0.067,0-0.124,0.055-0.124,0.123v0.492
				c0,0.068-0.055,0.124-0.123,0.124h-0.615c-0.068,0-0.124-0.056-0.124-0.124V5.484c0-0.068-0.055-0.123-0.123-0.123H73.02
				c-0.068,0-0.123,0.055-0.123,0.123v0.492c0,0.068-0.055,0.124-0.124,0.124h-0.616c-0.068,0-0.123-0.056-0.123-0.124V5.484
				c0-0.068-0.055-0.123-0.123-0.123h-0.628c-0.063,0-0.116,0.048-0.124,0.11l-0.104,1.053c-0.004,0.043,0.015,0.085,0.05,0.11
				l0.383,0.288c0.033,0.024,0.052,0.065,0.049,0.106l-0.232,3.377c-0.002,0.034,0.01,0.068,0.032,0.093
				c0.024,0.025,0.057,0.038,0.091,0.038h1.471c0.067,0,0.123-0.056,0.123-0.123V7.949c0-0.067-0.056-0.123-0.123-0.123h-0.494
				c-0.067,0-0.123-0.056-0.123-0.123V7.456c0-0.067,0.056-0.123,0.123-0.123h1.973c0.067,0,0.123,0.056,0.123,0.123v0.247
				c0,0.067-0.056,0.123-0.123,0.123h-0.493c-0.067,0-0.123,0.056-0.123,0.123v2.465c0,0.067,0.056,0.123,0.123,0.123h1.471
				c0.034,0,0.067-0.013,0.091-0.038c0.022-0.024,0.035-0.059,0.032-0.093l-0.233-3.377c-0.002-0.041,0.016-0.082,0.049-0.106
				l0.385-0.288c0.035-0.025,0.053-0.067,0.049-0.11L75.619,5.472z"/>
		</g>
	</g>
</g>
</svg>
